<svg width="234" height="235" viewBox="0 0 234 235" fill="none" xmlns="http://www.w3.org/2000/svg">
<path d="M117.188 230.469C179.751 230.469 230.469 179.751 230.469 117.188C230.469 54.624 179.751 3.90625 117.188 3.90625C54.624 3.90625 3.90625 54.624 3.90625 117.188C3.90625 179.751 54.624 230.469 117.188 230.469Z" fill="white"/>
<path d="M230.469 117.188C230.469 106.727 228.938 96.6328 226.281 87.0156C209.609 45.2109 168.844 15.625 121.094 15.625C58.5312 15.625 7.8125 66.3437 7.8125 128.906C7.8125 139.367 9.34375 149.461 12 159.078C28.6719 200.883 69.4375 230.469 117.188 230.469C179.75 230.469 230.469 179.75 230.469 117.188Z" fill="url(#paint0_linear)"/>
<path d="M155.859 223.547C150.75 225.398 145.32 221.594 145.336 216.156C145.375 206.57 145.414 195.242 145.414 187.328C145.414 176.719 141.789 169.781 137.727 166.266C162.961 163.453 189.445 153.836 189.445 110.148C189.445 97.7265 185.062 87.5781 177.797 79.625C178.969 76.7422 182.852 65.1875 176.672 49.5234C176.672 49.5234 167.18 46.4687 145.555 61.1797C136.508 58.6562 126.812 57.3984 117.195 57.3515C107.562 57.3984 97.875 58.6562 88.8359 61.1797C67.1953 46.4765 57.6797 49.5312 57.6797 49.5312C51.5234 65.1875 55.4062 76.75 56.5781 79.6328C49.3281 87.5859 44.914 97.7343 44.914 110.156C44.914 153.734 71.3594 163.492 96.5156 166.359C93.2734 169.203 90.3437 174.219 89.3203 181.562C82.8594 184.477 66.4609 189.5 56.3437 172.117C56.3437 172.117 50.3594 161.203 39 160.398C39 160.398 27.9297 160.258 38.2187 167.312C38.2187 167.312 45.6484 170.812 50.789 183.945C50.789 183.945 57.4375 206.07 88.9531 199.195C88.9765 203.273 89.0078 209.805 89.039 216.141C89.0625 221.562 83.664 225.43 78.5703 223.578C67.3594 219.508 56.9687 213.727 47.7187 206.547C66.914 221.484 90.9844 230.469 117.187 230.469C142.805 230.469 166.359 221.859 185.344 207.516C176.437 214.227 166.531 219.672 155.859 223.547Z" fill="white"/>
<path d="M81.1949 227.937C79.8589 227.937 78.523 227.71 77.2417 227.242C28.8667 209.695 -2.12546 163.367 0.116724 111.952C0.210474 109.804 1.92922 108.163 4.18704 108.218C6.34329 108.312 8.01516 110.14 7.92141 112.288C5.82766 160.273 34.7574 203.515 79.9058 219.882C81.0855 220.32 82.3902 220.14 83.4449 219.39C84.5308 218.624 85.148 217.437 85.1402 216.132L85.0777 203.843C54.398 208.226 47.1323 185.288 47.0542 185.046C42.7417 174.07 36.5698 170.827 36.5073 170.796C33.8355 169.007 28.7261 165.515 30.1792 160.937C31.4839 156.812 36.8355 156.538 39.0542 156.468C52.6167 157.421 59.4917 169.695 59.773 170.218C67.2417 183.054 78.6324 181.515 85.8277 178.765C86.5308 175.234 87.6949 172.023 89.2574 169.265C66.8199 165.468 41.0074 153.851 41.0074 110.14C41.0074 98.179 44.7495 87.6399 52.1323 78.7649C50.5073 73.4993 48.4761 62.2649 54.0386 48.1009C54.4683 47.0071 55.3667 46.1712 56.4839 45.8118C57.6089 45.4446 67.9917 42.7337 89.5308 56.9524C98.273 54.679 107.57 53.4993 117.179 53.4524C126.82 53.4993 136.109 54.679 144.859 56.9524C166.39 42.7337 176.734 45.4446 177.875 45.8118C178.992 46.1712 179.882 47.0071 180.312 48.0931C185.898 62.2571 183.875 73.4915 182.242 78.7728C189.617 87.6243 193.351 98.1634 193.351 110.148C193.351 153.859 167.507 165.445 145.031 169.202C147.796 174.07 149.32 180.343 149.32 187.327C149.32 195.242 149.281 206.585 149.242 216.171C149.242 217.468 149.843 218.632 150.914 219.39C151.984 220.14 153.304 220.32 154.531 219.882C197.617 204.226 226.562 162.952 226.562 117.187C226.562 87.0071 214.531 58.9056 192.695 38.054C170.867 17.2181 142.21 6.51495 111.945 7.93682C109.796 8.10089 107.968 6.36651 107.859 4.21807C107.757 2.06182 109.421 0.233698 111.578 0.132136C144.015 -1.35224 174.703 10.0853 198.085 32.4056C221.492 54.7415 234.375 84.8509 234.375 117.187C234.375 166.226 203.359 210.445 157.203 227.218C153.585 228.523 149.562 227.992 146.421 225.773C143.289 223.562 141.421 219.96 141.437 216.14C141.476 206.562 141.515 195.234 141.515 187.327C141.515 175.929 137.085 170.867 135.179 169.226C134.007 168.21 133.539 166.593 134 165.117C134.46 163.632 135.757 162.562 137.296 162.39C161.156 159.734 185.546 151.445 185.546 110.156C185.546 99.3743 181.968 89.9837 174.921 82.2728C173.906 81.1556 173.617 79.5618 174.187 78.1634C175.273 75.5071 178.281 66.1556 173.859 53.179C170.554 53.2728 162.117 54.6556 147.765 64.429C146.812 65.0774 145.625 65.2806 144.515 64.9603C136.046 62.6009 126.601 61.3275 117.179 61.2728C107.664 61.3196 98.4683 62.5618 89.8824 64.9603C88.7808 65.2884 87.5933 65.0774 86.6324 64.429C72.3355 54.7024 63.898 53.2806 60.4917 53.1946C56.0933 66.1712 59.1089 75.4993 60.187 78.1634C60.7495 79.5618 60.4683 81.1556 59.4527 82.2649C52.3902 90.0071 48.812 99.39 48.812 110.156C48.812 151.421 73.148 159.765 96.9527 162.476C98.4839 162.648 99.773 163.71 100.234 165.187C100.695 166.656 100.242 168.273 99.0855 169.288C97.3355 170.827 94.2339 174.538 93.1792 182.101C92.9995 183.429 92.1402 184.57 90.9136 185.117C85.0542 187.757 65.0073 194.781 52.9605 174.077C52.8745 173.929 48.8589 166.882 41.6792 164.812C44.2261 166.515 50.0933 171.468 54.4214 182.507C54.7574 183.546 60.7339 201.327 88.1167 195.367C89.273 195.124 90.4683 195.39 91.3902 196.132C92.312 196.867 92.8511 197.984 92.8589 199.156L92.9449 216.109C92.9605 219.945 91.0933 223.57 87.937 225.788C85.937 227.202 83.5777 227.937 81.1949 227.937Z" fill="#FF0000" fill-opacity="0.45"/>
<path d="M115.133 234.375C50.5781 234.375 0 182.898 0 117.188C0 88.8359 9.67188 61.6328 27.2266 40.5938C28.6016 38.9375 31.0781 38.7109 32.7266 40.1016C34.3828 41.4844 34.6094 43.9453 33.2266 45.6016C16.8359 65.2344 7.8125 90.6563 7.8125 117.188C7.8125 178.523 54.9531 226.562 115.133 226.562C176.578 226.562 226.562 177.5 226.562 117.188C226.562 56.875 176.578 7.8125 115.133 7.8125C96.0625 7.8125 77.5391 12.6563 61.5547 21.8125C59.6953 22.8672 57.2969 22.2266 56.2266 20.3594C55.1562 18.4844 55.8047 16.1016 57.6719 15.0234C74.8359 5.19531 94.7109 0 115.133 0C180.883 0 234.375 52.5703 234.375 117.188C234.375 181.805 180.883 234.375 115.133 234.375Z" fill="url(#paint1_linear)"/>
<path d="M51.1172 27.75C51.1172 29.8985 49.3594 31.6563 47.2109 31.6563C45.0625 31.6563 43.3047 29.8985 43.3047 27.75C43.3047 25.6016 45.0625 23.8438 47.2109 23.8438C49.3594 23.8438 51.1172 25.5938 51.1172 27.75Z" fill="url(#paint2_linear)"/>
<defs>
<linearGradient id="paint0_linear" x1="57.1875" y1="220.187" x2="193.187" y2="33.1875" gradientUnits="userSpaceOnUse">
<stop stop-color="#FF0000"/>
<stop offset="0.638156" stop-color="#FF8A00"/>
</linearGradient>
<linearGradient id="paint1_linear" x1="207" y1="16" x2="20" y2="234" gradientUnits="userSpaceOnUse">
<stop stop-color="#FF0000"/>
<stop offset="1" stop-color="#FFE600"/>
</linearGradient>
<linearGradient id="paint2_linear" x1="47.2109" y1="23.8438" x2="47.2109" y2="31.6563" gradientUnits="userSpaceOnUse">
<stop stop-color="#f42c00"/>
<stop offset="1" stop-color="#f42c00" stop-opacity="0"/>
</linearGradient>
</defs>
</svg>
